<?xml version="1.0" encoding="utf-8"?>
<!-- Generator: Adobe Illustrator 23.1.0, SVG Export Plug-In . SVG Version: 6.00 Build 0)  -->
<svg version="1.1" id="Layer_1" xmlns="http://www.w3.org/2000/svg" xmlns:xlink="http://www.w3.org/1999/xlink" x="0px" y="0px"
	 viewBox="0 0 515 494" style="enable-background:new 0 0 515 494;" xml:space="preserve">
<style type="text/css">
	.st0{fill:#FFFFFF;}
</style>
<g>
	<path class="st0" d="M181.2,52.2c2.8-1.6,5.8,0.8,6.9,3.4c2.6,5.8,2.8,12.2,3.2,18.4c1,34.7-1.6,69.3-1,103.9
		c0.6,18.1,1.5,36.4,6.9,53.8c3.2,9.6,8.3,19.4,17.4,24.7c8.9,5.2,19.8,4.9,29.6,2.6c21.8-4.9,42.7-13,63.5-21.3
		c16.2-6.6,32.2-13.7,47.9-21.2c16-7.7,31.6-16.2,48.6-21.4c5.4-1.5,11.1-3.1,16.7-2.2c2.3,0.3,4.3,2.7,3.7,5.1
		c-0.5,2.9-2.5,5.2-4.4,7.3c-7.4,7.8-16.4,13.7-25.2,19.8c-35.5,24.5-70.6,49.5-106.5,73.4c-14.9,9.7-29.9,19.4-45.9,27.1
		c-18.8,8.5-39.7,14.3-60.4,11.6c-13-1.6-25.6-8.8-32.1-20.4c-8.9-15.3-9.1-33.9-7.5-51c6.1-50,13.7-99.7,21.8-149.4
		c2.2-13.5,4.5-27,6.4-40.5c0.9-6.2,2.4-12.5,5.2-18.1C177.3,55.7,178.8,53.4,181.2,52.2z"/>
	<path class="st0" d="M0,53c2.7,0,5.3,0,8,0c0,11.4,0,22.8,0,34.3c10.7,0,21.4,0,32.1,0c2.2-0.3,4.3,1.4,4.2,3.7c0.1,13,0,26,0,39.1
		c-2.7,0-5.3,0-8,0c0-11.6,0-23.2,0-34.8c-10.4,0-20.9,0.1-31.3,0c-2.1,0.2-3.9-0.9-5-2.7V53z"/>
	<path class="st0" d="M55.8,53c2.7,0,5.3,0,8,0c0,11.4,0,22.8,0,34.2c1.9,0,3.8,0,5.8,0c0,2.7,0,5.3,0,8c-1.9,0-3.8,0-5.7,0
		c0,11.6,0,23.2,0,34.7c-2.7,0-5.3,0-8,0c0-11.6,0-23.2,0-34.8c-1.9,0-3.8,0-5.8,0c0-2.7,0-5.3,0-8c1.9,0,3.8,0,5.7,0
		C55.8,75.8,55.8,64.4,55.8,53z"/>
	<path class="st0" d="M74.8,53c2.7,0,5.3,0,8,0c0,25.7,0,51.3,0,77c-2.7,0-5.3,0-8,0C74.8,104.3,74.8,78.7,74.8,53z"/>
	<path class="st0" d="M404.3,271.5c5.1-2,11.4,0.2,14.3,4.9c3.5,5.6,3.8,12.4,3.1,18.8c-2.7,25.8-6.1,51.4-9.6,77.1
		c-3.3,23.6-6.6,47.3-10.1,70.9c-1,5-2,10.5-5.6,14.4c-1.7,1.9-5.3,2.2-6.7-0.2c-2.2-3.3-2.4-7.5-2.4-11.3c1.3-24.6,2.2-49.2,3-73.8
		c1-27.1,1.6-54.2,2-81.3C392.3,283,396.5,274.3,404.3,271.5z"/>
</g>
</svg>
